<svg xmlns="http://www.w3.org/2000/svg" xmlns:xlink="http://www.w3.org/1999/xlink" width="71.055" height="77.12" viewBox="0 0 71.055 77.12"><defs><clipPath id="a"><rect width="71.055" height="77.12" fill="none"/></clipPath><clipPath id="b"><path d="M53.709,78.4a4.6,4.6,0,0,0-.953.136l-.163.054a5.665,5.665,0,0,0-1.035.436l-.136.082-.245.163-.191.136a3.54,3.54,0,0,0-.817.763,3.4,3.4,0,0,0-.327.463l-.517.844-.545-.817v-.054a.245.245,0,0,0-.109-.082l-.109-.082-.082-.082a1.579,1.579,0,0,0-.6-.463l-.3-.163a3.4,3.4,0,0,0-1.035-.354l-.136-.054-.654-.082h-.49l-.6.082-.3.082-.6.136-.545.245-.3.136a.9.9,0,0,0-.3.218l-.218.163a.626.626,0,0,0-.272.272c-.027.054-.082.136-.054.191s.136.082.191.082l.463.082.163.054.3.082a2.206,2.206,0,0,0,.545.082H43.9a3.35,3.35,0,0,0,.735.163h.136l.082.054.218.054.191-.054.463-.218.3.381.082.082.98.572-.98.463-.218.109a6.454,6.454,0,0,0-.98.708,3.894,3.894,0,0,0-.49.572v.054a2.969,2.969,0,0,0-.626,1.334v.136l-.082.109a.3.3,0,0,0-.027.136v.49h0v.191a.545.545,0,0,0,.109.436l.191.082.136-.082a8.693,8.693,0,0,1,.735-.572l.191-.109.218-.163.327-.245.191-.082.272-.163a2.26,2.26,0,0,1,.626-.463c.163-.082.218-.191.218-.218l.136-.354.381-.054h.054l.626-.463.327.681.054.082a.953.953,0,0,0,.654.545l.354.054h.517l.136.436v.054L50.2,86v.136l.082.327a1.335,1.335,0,0,1,.082.545,4.194,4.194,0,0,1,.136.926c0,.082.027.191.027.272s.027.735.027,1.144v.817a5.228,5.228,0,0,1-.082.654,4.248,4.248,0,0,0-.054.545v.109l-.054.109a2.342,2.342,0,0,0-.082.409,1.389,1.389,0,0,1-.054.3v.054l-.136.626a2.07,2.07,0,0,1-.163.545.8.8,0,0,0-.082.272,9.014,9.014,0,0,1-.463,1.062.109.109,0,0,0,0,.109.087.087,0,0,0,.082.082h-.054a.245.245,0,0,0,.163-.082.926.926,0,0,0,.245-.436l.082-.191.082-.163.082-.191.191-.436h1.144a8.007,8.007,0,0,1,1.062.054l.626.082-.054.626v.082a1.2,1.2,0,0,1-.082.409.708.708,0,0,0-.054.245v.136l-.082.109s-.054.082,0,.109.109.109.191.109l-.082-.082c.027,0,.082,0,.136-.109a2.37,2.37,0,0,0,.191-.817l.082-.409a1.988,1.988,0,0,0,.082-.654,3.949,3.949,0,0,1,.054-.763,7.026,7.026,0,0,0,.054-.708v-.082a2.043,2.043,0,0,0-.054-.381,1.852,1.852,0,0,1-.054-.381c0-.272-.054-.572-.082-.844a3.431,3.431,0,0,1-.082-.708h0a1.389,1.389,0,0,1-.109-.517,2.1,2.1,0,0,0-.082-.381,2.015,2.015,0,0,1-.109-.409l-.054-.191c0-.054-.027-.082-.027-.163a.844.844,0,0,0-.082-.272,1.743,1.743,0,0,1-.082-.327l-.082-.245v-.136a.311.311,0,0,0-.082-.163l-.082-.082L52.4,86.6a.381.381,0,0,1-.082-.191v-.082a5.094,5.094,0,0,0-.218-.654l-.136-.381a2.859,2.859,0,0,0-.218-.463l-.054-.054-.409-.463.436-.409.109-.109.136-.136.109-.109h.163l.163-.082.517-.436.381.572a.269.269,0,0,0,.245.163l.545.136.409.109h.082l.436.082.272.082a.681.681,0,0,1,.354.082l.272.082.3.082H56.3a.163.163,0,0,0,.136-.082.1.1,0,0,0,.027-.082v-.109a2.233,2.233,0,0,0-.082-.381l-.082-.191-.3-.6a3.05,3.05,0,0,0-.463-.626l-.082-.054-.272-.082-.109-.245-.054-.082L54.88,81.8H54.5l-.218-.272L54.2,81.45l-.272-.109-1.144-.354.926-.735.163-.136.082-.082.109-.054.354-.245.409-.272.463-.327.218-.163c.082-.054.218-.136.218-.191s-.136-.163-.191-.218H55.4l-.3-.082-.245.082A5.338,5.338,0,0,0,53.9,78.4Z" transform="translate(-42.073 -78.4)" fill="none"/></clipPath><clipPath id="c"><path d="M86.7,90.145a.272.272,0,0,0,.272.272.247.247,0,0,0,.272-.218c0-.136-.218-.3-.327-.3H86.89a.245.245,0,0,0-.191.245" transform="translate(-86.7 -89.9)" fill="none"/></clipPath><clipPath id="d"><path d="M45,83.508a.844.844,0,0,1-.817-.817c0-.545.436-.763.872-.844s.817.517.79.872a.823.823,0,0,1-.735.817h-.082m1.226-1.525a2.538,2.538,0,0,0-.272-.272.136.136,0,0,1-.054-.163.163.163,0,0,1,.136-.082l.3.054.6.136.327.082c.191.082.109.163.054.245a.9.9,0,0,1-.572.272.654.654,0,0,1-.545-.272m-2.478-1.226a1.8,1.8,0,0,1,.681-.054c.082.027.163,0,.191.082s-.027.136-.082.218a5.528,5.528,0,0,1-.844.735,8.525,8.525,0,0,0-.708.6.545.545,0,0,1-.49.109l-.463-.136a.218.218,0,0,0-.327.163.79.79,0,0,0,.082.572c.082.136.027.245-.082.354a6.21,6.21,0,0,1-.654.463l-.953.654-.572.436c-.082.082-.136.054-.136-.082v-.354a2.381,2.381,0,0,1,.354-1.226,3.1,3.1,0,0,1,.817-1.089,5.175,5.175,0,0,1,.735-.517l.817-.463.436-.136a3.867,3.867,0,0,0,.654-.272h.082l.49-.054m-5.5-2.043c-.109,0-.163-.109-.082-.218a1.689,1.689,0,0,1,.654-.436,4.2,4.2,0,0,1,.708-.245,2.451,2.451,0,0,1,.926-.136h.517a5.067,5.067,0,0,1,1.062.218,5.148,5.148,0,0,1,1.144.463c.191.082.272.3.463.409a4.8,4.8,0,0,1,.953,1.062c.272.409.082.109.027.163a.163.163,0,0,1-.163.054c-.218-.136-.49-.054-.735-.191h-.054a1.906,1.906,0,0,1-.79-.136,3.868,3.868,0,0,1-.872-.191q-.082-.041-.082-.082a3.486,3.486,0,0,1-.109-.681.381.381,0,0,0-.082-.218c-.082-.109-.136-.109-.272-.054s-.545.463-.872.654a.3.3,0,0,1-.3.027l-.245-.082a6.427,6.427,0,0,1-.926-.191H38.95c-.218,0-.436-.136-.654-.136m7.381.9c-.054-.027-.054-.054-.027-.082a4.548,4.548,0,0,1,.6-.9l.572-.626a3.758,3.758,0,0,1,1.144-.79,4.684,4.684,0,0,1,.817-.3,1.939,1.939,0,0,1,1.035-.109,3.392,3.392,0,0,0,1.035.082.082.082,0,0,1,.082.082.136.136,0,0,1-.082.109c-.218.082-.354.272-.572.409l-.926.6-.163.136c-.082.082-.136.109-.218.054a4.088,4.088,0,0,1-.49-.163l-.136-.054c-.354-.054-.381,0-.409.354v.6a.172.172,0,0,1-.191.191H47.5a5.066,5.066,0,0,0-1.035.191,1.825,1.825,0,0,0-.681.245h-.109m2.832-3.159a5.61,5.61,0,0,0-1.28.517,3.541,3.541,0,0,0-.463.354,3.758,3.758,0,0,0-.9.817,4.793,4.793,0,0,0-.654,1.117c-.027.054-.027.109-.082.109s-.109-.082-.136-.109a4.138,4.138,0,0,1-.49-.626c-.136-.245-.245-.136-.3-.245a5.886,5.886,0,0,0-1.008-.708,3.677,3.677,0,0,0-1.226-.409,6.075,6.075,0,0,0-.953-.109,2.723,2.723,0,0,0-.98.082l-.98.245a5.625,5.625,0,0,0-.926.409c-.3.136-.354.3-.545.436a.817.817,0,0,0-.327.3c-.109.245-.054.354.245.409l.681.136a4.193,4.193,0,0,0,.953.191h.082a3.84,3.84,0,0,0,.9.218H40.2a.626.626,0,0,0,.817-.163c.082-.082.163-.218.3-.163s.082.218.082.3a.354.354,0,0,0,.191.3,2.615,2.615,0,0,0,.844.191,4.384,4.384,0,0,0,.6.136c.027,0,.082.027.054.054l-.054.054a1.743,1.743,0,0,0-.327.082,7.3,7.3,0,0,0-1.389.6,5.611,5.611,0,0,0-1.089.763,5.285,5.285,0,0,0-.572.708,3.377,3.377,0,0,0-.681,1.552.191.191,0,0,1-.054.109.3.3,0,0,0-.082.245v.517c.054.218-.082.517.136.763a.272.272,0,0,0,.463.054,9.615,9.615,0,0,1,.98-.735l.572-.436c.163-.109.381-.163.49-.3a1.961,1.961,0,0,1,.626-.463.463.463,0,0,0,.272-.49c-.027-.245.082-.3.3-.191a.218.218,0,0,0,.272-.027,2.615,2.615,0,0,1,.49-.409c.082-.027.109-.054.109.054a2.587,2.587,0,0,0,.272.708,1.089,1.089,0,0,0,.763.626,1.525,1.525,0,0,0,1.008-.082,1.362,1.362,0,0,0,.763-.9c.054-.191.109-.245.272-.245a1.634,1.634,0,0,0,.763-.191,1.607,1.607,0,0,0,.517-.463c.054-.054.082-.136.191-.136a.708.708,0,0,0,.354-.163l.354-.3c.082-.082.163-.082.218.027a1.253,1.253,0,0,1,.109.272c.082.191.191.381.409.381s.654.218,1.008.272a2.1,2.1,0,0,1,.517.109,4.577,4.577,0,0,1,.654.191c.191.109.436.082.654.191s.463-.082.409-.272a3.7,3.7,0,0,0-.136-.545,5.392,5.392,0,0,0-.409-.817,3.023,3.023,0,0,0-.545-.681.327.327,0,0,0-.381-.027c-.109.082-.082.218,0,.327s.327.463.49.708a2.015,2.015,0,0,1,.272.626A.058.058,0,0,1,52,82.5a4.275,4.275,0,0,0-.517-.136,1.226,1.226,0,0,0-.463-.136c-.381-.054-.735-.218-1.117-.272a.191.191,0,0,1-.109-.082,2.506,2.506,0,0,1-.517-.79c-.136-.272-.327-.327-.517-.082a5.42,5.42,0,0,0-.517.517c-.054.082-.109.082-.245.054s-.409-.191-.654-.136H47.2l-.708-.191a2.1,2.1,0,0,1-.545-.163A.572.572,0,0,0,45.677,81c-.191,0-.272-.136-.381-.245s0-.082.054-.109a2.288,2.288,0,0,1,.654-.3l.463-.136a2.56,2.56,0,0,1,.735-.163h1.716a2.833,2.833,0,0,0,.654.163l.545.163c.136.027.327,0,.354-.109a.272.272,0,0,0-.163-.327,5.2,5.2,0,0,0-.545-.218c-.354-.109-.763-.109-1.144-.245s-.245-.082-.218-.272.136-.163.272-.163l.218.082a.409.409,0,0,0,.409,0,2.206,2.206,0,0,0,.654-.681.245.245,0,0,1,.109-.082c.272-.136.545-.381.817-.517a8.5,8.5,0,0,0,.763-.517c.327-.245.354-.3.027-.572l-.136-.054-.572-.136a5.065,5.065,0,0,0-1.035-.163h-.218a5.011,5.011,0,0,0-1.2.191" transform="translate(-37.21 -76.4)" fill="none"/></clipPath><clipPath id="e"><path d="M67.689,108.144a3.568,3.568,0,0,1,.708-.054h.49c.272,0,.272.027.272.272v.654a6.634,6.634,0,0,0-.027.735c0,.245-.082.3-.3.3a2.288,2.288,0,0,1-.572,0,4.63,4.63,0,0,0-1.171-.082h-.517a.245.245,0,0,1-.218-.109c-.027-.027-.054-.054-.027-.082s.136-.654.272-.98a.871.871,0,0,0,.027-.354.25.25,0,0,1,.245-.272h.163l.626-.054m1.035-2.369c.054-.027.082,0,.082.054s.109.191.082.272.163.817.136,1.226-.027.218-.163.191a2.424,2.424,0,0,0-.681.054,2.206,2.206,0,0,1-.735.054h-.436c-.245,0-.327-.082-.245-.3a3.669,3.669,0,0,0,.082-1.008c0-.354,0-.3.3-.327a.735.735,0,0,0,.545-.109c.054-.054.163-.027.245-.027h.409a.953.953,0,0,0,.409-.082m-1.389-.354c-.49,0-.463,0-.517-.463a2.669,2.669,0,0,1-.109-.735c0-.136.054-.191.191-.245s.517-.054.79-.163a.926.926,0,0,1,.572-.027c.163.054.163.218.218.354a8.01,8.01,0,0,0,.218.817c.082.245,0,.381-.245.354a1.743,1.743,0,0,0-.572.054l-.436.054h-.054m.218-4.412a.436.436,0,0,0-.136.327l.3.708c.136.327.218.654.381,1.008a.109.109,0,0,1-.082.163,1.743,1.743,0,0,1-.681.109h-.218a.6.6,0,0,1-.409.082.163.163,0,0,1-.163-.136,8.079,8.079,0,0,0-.218-1.117c-.136-.354-.054-.136-.136-.163a.381.381,0,0,0-.381.082c-.082.082-.054.136,0,.245a.191.191,0,0,1,.054.109c-.027.327.163.654.109.98v.082a5.556,5.556,0,0,1,.191,1.253c.082.681,0,1.389.027,2.07s-.163.9-.109,1.362a.082.082,0,0,1-.027.082,4.341,4.341,0,0,0-.163.817c-.082.272-.109.463-.163.708a6.047,6.047,0,0,1-.272.844,6.672,6.672,0,0,1-.49,1.117.218.218,0,0,0,.163.327.327.327,0,0,0,.272-.109,1.852,1.852,0,0,0,.327-.681,2.152,2.152,0,0,0,.272-.654.218.218,0,0,1,.327-.163l.191.054a14.161,14.161,0,0,1,2.26.109c.218.054.272.109.191.327a.953.953,0,0,0-.082.354c.027.272-.163.517-.136.817l-.054.082a.218.218,0,0,0-.054.272.381.381,0,0,0,.3.163.245.245,0,0,0,.218-.191,2.914,2.914,0,0,0,.191-.872,6.182,6.182,0,0,0,.136-1.144c-.027-.626.163-1.144.136-1.689s-.082-.572-.082-.844-.109-1.144-.136-1.689a.082.082,0,0,0-.027-.082c-.136-.3-.082-.654-.191-.953s-.082-.436-.163-.626a2.806,2.806,0,0,0-.109-.463,5.855,5.855,0,0,1-.163-.626c-.054-.109-.027-.245-.109-.354a.708.708,0,0,1-.136-.327,4.331,4.331,0,0,0-.272-.79,8.9,8.9,0,0,0-.381-.9.327.327,0,0,0-.272-.163h-.082" transform="translate(-64.99 -100.9)" fill="none"/></clipPath></defs><g transform="translate(35.528 38.56)"><g transform="translate(-35.528 -38.56)"><g clip-path="url(#a)"><path d="M41.142,50.469l2.043-1.28,7.762,12.446V17.678A2.478,2.478,0,0,0,48.468,15.2H21.506A2.478,2.478,0,0,0,19,17.678V76.124A2.478,2.478,0,0,0,21.478,78.6H48.441a2.478,2.478,0,0,0,2.478-2.478V66.02ZM37.874,72.992H33.135a1.416,1.416,0,1,1,0-2.832h4.712a1.416,1.416,0,1,1,0,2.832" transform="translate(-13.825 -11.06)" fill="#feb61b"/><path d="M155.278,167.568l-7.108-14.434c-2.288-3.7-5.256-2.832-5.583-2.723l-12.773,5.2a1.416,1.416,0,0,1-1.743-.572l-7-11.411a2.289,2.289,0,0,0-3.078-.626,2.4,2.4,0,0,0-1.035,1.416,2.043,2.043,0,0,0,.191,1.634l13.617,22.2a1.416,1.416,0,0,1-1.552,2.124l-8.96-2.152a2.152,2.152,0,0,0-2.615,1.58l-.136.545a2.12,2.12,0,0,0,1.552,2.587s17.267,8.824,22.959,7.98,8.552-2.315,13.045-7.353c1.443-1.607,1.117-4,.163-5.937" transform="translate(-85.04 -103.812)" fill="#feb61b"/><path d="M35.791,59.4A12.691,12.691,0,1,1,23.1,72.091,12.691,12.691,0,0,1,35.791,59.4" transform="translate(-16.809 -43.223)" fill="#fff"/></g><g transform="translate(11.458 21.352)" clip-path="url(#b)"><rect width="18.274" height="21.055" transform="translate(-1.953 -1.961)" fill="#0ecdc8"/></g><g transform="translate(23.612 24.484)" clip-path="url(#c)"><rect width="4.439" height="4.428" transform="translate(-1.961 -1.961)" fill="#212121"/></g><g transform="translate(10.134 20.807)" clip-path="url(#d)"><rect width="19.473" height="13.427" transform="translate(-1.964 -1.988)" fill="#212121"/></g><g transform="translate(17.7 27.48)" clip-path="url(#e)"><rect width="8.633" height="15.592" transform="translate(-1.958 -1.852)" fill="#212121"/></g><g clip-path="url(#a)"><path d="M23.531,65.363H4.249A4.249,4.249,0,0,1,0,61.115V4.249A4.249,4.249,0,0,1,4.249,0H33.2a4.249,4.249,0,0,1,4.249,4.249V31.374H34.615V4.249A1.416,1.416,0,0,0,33.2,2.832H4.249A1.416,1.416,0,0,0,2.832,4.249V61.115a1.416,1.416,0,0,0,1.416,1.416H23.531Z" fill="#222"/><path d="M61.028,209.432H56.316a1.416,1.416,0,1,1,0-2.832h4.712a1.416,1.416,0,1,1,0,2.832" transform="translate(-39.948 -150.333)" fill="#222"/><rect width="27.099" height="2.846" transform="translate(1.416 50.248)" fill="#222"/><path d="M140.655,151.4l-6.618-12.773c-2.887-4.739-7.163-4.684-9.069-3.976l-11.711,4.766-6.373-10.4a5.141,5.141,0,0,0-7-1.552,5.256,5.256,0,0,0-2.288,3.078,4.875,4.875,0,0,0,.517,3.867l11.82,19.255-5.61-1.335a5.011,5.011,0,0,0-6.046,3.649l-.136.545a4.984,4.984,0,0,0,3.649,6.046l22.55,5.365a8.388,8.388,0,0,0,1.634.136c5.5,0,13.427-4.521,15.415-10.322a9.36,9.36,0,0,0-.763-6.346M138.64,156.8c-1.525,4.466-8.307,8.415-12.61,8.388-2.778-.027-23.558-5.392-23.558-5.392a2.12,2.12,0,0,1-1.552-2.587l.136-.545a2.152,2.152,0,0,1,2.615-1.58l8.96,2.152a1.416,1.416,0,0,0,1.552-2.124l-13.617-22.2a2.043,2.043,0,0,1-.191-1.634,2.4,2.4,0,0,1,1.035-1.416,2.289,2.289,0,0,1,3.078.626l6.972,11.466a1.416,1.416,0,0,0,1.743.572l12.773-5.2c.327-.109,3.3-1.008,5.583,2.723,0,0,6.373,12.392,6.673,13.1a7.9,7.9,0,0,1,.436,3.649" transform="translate(-70.88 -92.196)" fill="#222"/></g></g></g></svg>